<svg width="32" height="27" viewBox="0 0 32 27" fill="none" xmlns="http://www.w3.org/2000/svg">
<path d="M29.5907 11.2902C29.4619 11.2693 29.3315 11.2597 29.2011 11.2614H6.99044L7.47475 11.0361C7.94814 10.812 8.37881 10.5071 8.74746 10.1351L14.9759 3.90665C15.7962 3.1236 15.934 1.86391 15.3025 0.92197C14.5675 -0.0817705 13.158 -0.299709 12.1542 0.43527C12.0731 0.494682 11.996 0.559444 11.9236 0.629133L0.660661 11.8921C-0.219539 12.7713 -0.220314 14.1975 0.658901 15.0777C0.659464 15.0783 0.660097 15.0789 0.660661 15.0795L11.9236 26.3425C12.8045 27.2209 14.2308 27.2189 15.1093 26.338C15.1784 26.2687 15.2429 26.1949 15.3025 26.1172C15.934 25.1753 15.7962 23.9156 14.9759 23.1325L8.75872 16.8928C8.42823 16.562 8.04824 16.2846 7.63243 16.0706L6.95665 15.7665H29.0771C30.2278 15.8093 31.2374 15.0055 31.4536 13.8744C31.6527 12.6464 30.8187 11.4894 29.5907 11.2902Z" fill="black"/>
</svg>
