<svg width="29" height="32" viewBox="0 0 29 32" fill="none" xmlns="http://www.w3.org/2000/svg">
<path d="M25.6876 20.6308C25.2423 20.6308 24.88 20.2684 24.88 19.8231V14.1177C24.88 9.61327 21.904 5.79091 17.815 4.51326C17.9379 4.17093 18.0029 3.80751 18.0029 3.43772C18.0029 1.68297 16.5753 0.255318 14.8204 0.255318C13.0655 0.255318 11.6379 1.68297 11.6379 3.43778C11.6379 3.81044 11.7016 4.17332 11.8237 4.514C7.73576 5.79225 4.76079 9.61406 4.76079 14.1178V19.8231C4.76079 20.2685 4.39846 20.6308 3.95315 20.6308C2.17223 20.6308 0.723419 22.0797 0.723419 23.8606C0.723419 25.6414 2.17223 27.0903 3.95315 27.0903H11.4876C11.4148 27.371 11.3767 27.6628 11.3767 27.9605C11.3767 29.8594 12.9216 31.4043 14.8204 31.4043C16.7192 31.4043 18.2641 29.8594 18.2641 27.9605C18.2641 27.6629 18.226 27.3711 18.1532 27.0903H25.6876C27.4685 27.0903 28.9173 25.6414 28.9173 23.8606C28.9174 22.0796 27.4686 20.6308 25.6876 20.6308V20.6308ZM13.4725 3.43778C13.4725 2.69454 14.0772 2.08987 14.8204 2.08987C15.5636 2.08987 16.1683 2.69454 16.1683 3.43778C16.1683 3.68147 16.1024 3.91868 15.9798 4.12538C15.5992 4.08153 15.2125 4.05817 14.8204 4.05817C14.4287 4.05817 14.0424 4.08147 13.6622 4.12525C13.5394 3.91917 13.4725 3.68386 13.4725 3.43778ZM16.4296 27.9605C16.4296 28.8478 15.7077 29.5696 14.8205 29.5696C13.9332 29.5696 13.2113 28.8478 13.2113 27.9605C13.2113 27.647 13.3007 27.3474 13.4667 27.0902H16.1741C16.3402 27.3474 16.4296 27.647 16.4296 27.9605ZM25.6876 25.2557H3.95315C3.18386 25.2557 2.55798 24.6298 2.55798 23.8605C2.55798 23.0912 3.18386 22.4653 3.95315 22.4653C5.41004 22.4653 6.59534 21.28 6.59534 19.8231V14.1177C6.59534 9.58239 10.2851 5.89267 14.8204 5.89267C19.3557 5.89267 23.0454 9.58239 23.0454 14.1177V19.8231C23.0454 21.28 24.2307 22.4653 25.6876 22.4653C26.4569 22.4653 27.0828 23.0912 27.0828 23.8605C27.0829 24.6298 26.4569 25.2557 25.6876 25.2557V25.2557Z" fill="#5A5C6D"/>
</svg>
