<svg width="39" height="29" viewBox="0 0 39 29" fill="none" xmlns="http://www.w3.org/2000/svg">
<path d="M30.8226 16.923V3.69229C30.8226 1.65638 29.1295 0 27.0484 0H3.77419C1.69312 0 0 1.65638 0 3.69229V16.923C0 18.9589 1.69312 20.6153 3.77419 20.6153H7.16193L7.23419 23.949C7.25581 24.9506 8.43147 25.5091 9.24929 24.9058L15.0665 20.6154H27.0484C29.1295 20.6153 30.8226 18.9589 30.8226 16.923ZM14.6454 18.1538C14.3721 18.1538 14.1064 18.2408 13.8881 18.4017L9.69763 21.4924L9.6514 19.3585C9.63685 18.6891 9.07804 18.1538 8.39365 18.1538H3.77419C3.08053 18.1538 2.51613 17.6017 2.51613 16.9231V3.69237C2.51613 3.01375 3.08053 2.4616 3.77419 2.4616H27.0484C27.7421 2.4616 28.3065 3.01375 28.3065 3.69237V16.9231C28.3065 17.6017 27.7421 18.1538 27.0484 18.1538H14.6454V18.1538ZM39 11.3846V21.5383C39 23.5743 37.307 25.2306 35.2258 25.2306H31.8327L31.7657 27.8005C31.7483 28.4692 31.188 28.9998 30.5081 28.9998C30.0061 28.9998 30.2856 29.085 23.9933 25.2306H18.2419C17.5471 25.2306 16.9839 24.6796 16.9839 23.9999C16.9839 23.3201 17.5471 22.7691 18.2419 22.7691C24.9149 22.7691 24.6031 22.7 25.0222 22.9566L29.3066 25.581L29.3486 23.9684C29.3661 23.3011 29.9239 22.769 30.6063 22.769H35.2258C35.9195 22.769 36.4839 22.2169 36.4839 21.5383V11.3845C36.4839 10.7059 35.9195 10.1537 35.2258 10.1537C34.531 10.1537 33.9677 9.60272 33.9677 8.92295C33.9677 8.24319 34.531 7.69219 35.2258 7.69219C37.307 7.69227 39 9.34857 39 11.3846V11.3846ZM23.2742 8.07688C23.2742 8.75665 22.711 9.30764 22.0161 9.30764H8.80645C8.11161 9.30764 7.54839 8.75665 7.54839 8.07688C7.54839 7.39711 8.11161 6.84612 8.80645 6.84612H22.0161C22.711 6.84612 23.2742 7.39711 23.2742 8.07688ZM20.994 13.4615C20.994 14.1412 20.4307 14.6922 19.7359 14.6922H11.0867C10.3918 14.6922 9.82863 14.1412 9.82863 13.4615C9.82863 12.7817 10.3918 12.2307 11.0867 12.2307H19.7359C20.4307 12.2307 20.994 12.7817 20.994 13.4615Z" fill="black"/>
</svg>
