<svg width="29" height="29" viewBox="0 0 29 29" fill="none" xmlns="http://www.w3.org/2000/svg">
<g clip-path="url(#clip0)">
<path d="M11.2351 28.8498H7.13624C5.96856 28.8492 4.84889 28.3899 4.02322 27.5728C3.19754 26.7557 2.73341 25.6477 2.73279 24.4921V18.0312C2.10475 17.8834 1.52811 17.5719 1.06267 17.1292C0.696025 16.7832 0.411054 16.3613 0.228083 15.8938C0.0451125 15.4262 -0.0313499 14.9244 0.004149 14.4243C0.010911 13.9161 0.121633 13.4145 0.329636 12.9498C0.537639 12.4851 0.838611 12.067 1.21439 11.7205L11.8431 1.20226C12.183 0.817533 12.6035 0.510685 13.0753 0.303051C13.5471 0.0954179 14.059 -0.00801743 14.5753 -6.1806e-05V-6.1806e-05C15.0894 0.00707057 15.5967 0.117296 16.0665 0.32395C16.5363 0.530604 16.9588 0.829395 17.3086 1.20226L27.9374 11.7205C28.2927 12.0748 28.5702 12.498 28.7523 12.9635C28.9345 13.429 29.0174 13.9267 28.9959 14.4254C29.001 15.2573 28.7391 16.0693 28.2478 16.7443C27.7566 17.4193 27.0614 17.9225 26.2626 18.1814V24.6423C26.2619 25.7978 25.7978 26.9058 24.9721 27.7229C24.1465 28.54 23.0268 28.9993 21.8591 28.9999H17.7591C17.1598 28.9855 16.5891 28.7434 16.1652 28.3239C15.7413 27.9044 15.4967 27.3397 15.4821 26.7466V20.8852H13.5133V26.7454C13.4667 27.314 13.2073 27.8449 12.7859 28.2342C12.3645 28.6234 11.8115 28.843 11.2351 28.8498V28.8498ZM4.25118 15.3263C4.45375 15.3143 4.6566 15.3449 4.84634 15.4161C5.03608 15.4874 5.20839 15.5976 5.35189 15.7397C5.49539 15.8817 5.60681 16.0522 5.67881 16.2399C5.75081 16.4277 5.78175 16.6285 5.76957 16.8289V24.6423C5.76879 24.8201 5.80361 24.9963 5.87202 25.1607C5.94042 25.3252 6.04106 25.4746 6.16812 25.6003C6.29519 25.7261 6.44616 25.8256 6.61232 25.8933C6.77848 25.961 6.95655 25.9955 7.13624 25.9947H10.4765V20.5849C10.4749 20.2292 10.5445 19.8768 10.6814 19.5479C10.8182 19.219 11.0195 18.9202 11.2736 18.6688C11.5277 18.4173 11.8296 18.2181 12.162 18.0827C12.4943 17.9473 12.8504 17.8784 13.2098 17.8799H15.6421C16.0014 17.8784 16.3576 17.9473 16.6899 18.0827C17.0222 18.2181 17.3242 18.4173 17.5783 18.6688C17.8324 18.9202 18.0337 19.219 18.1705 19.5479C18.3073 19.8768 18.377 20.2292 18.3754 20.5849V25.9936H21.7156C21.8953 25.9943 22.0734 25.9599 22.2395 25.8922C22.4057 25.8245 22.5567 25.7249 22.6837 25.5991C22.8108 25.4734 22.9114 25.324 22.9799 25.1596C23.0483 24.9951 23.0831 24.8189 23.0823 24.6411V16.8289C23.0701 16.6285 23.1011 16.4277 23.1731 16.2399C23.2451 16.0522 23.3565 15.8817 23.5 15.7397C23.6435 15.5976 23.8158 15.4874 24.0055 15.4161C24.1953 15.3449 24.3981 15.3143 24.6007 15.3263H25.0512C25.2876 15.3105 25.5103 15.2104 25.6779 15.0445C25.8455 14.8787 25.9467 14.6583 25.9627 14.4243C25.9604 14.3081 25.932 14.194 25.8795 14.0901C25.827 13.9862 25.7517 13.8952 25.6592 13.8237L15.0316 3.30544C15.0316 3.1553 14.7282 3.00516 14.5765 3.00516C14.273 3.00516 14.1213 3.1553 13.8179 3.30544L3.18795 13.8237C3.06746 14 3.01373 14.2127 3.03623 14.4243C3.03849 14.5404 3.06691 14.6546 3.1194 14.7585C3.17189 14.8624 3.24714 14.9534 3.33967 15.0249C3.4119 15.1164 3.50385 15.1909 3.60884 15.2428C3.71383 15.2948 3.8292 15.3229 3.94656 15.3252L4.25118 15.3263Z" fill="black"/>
</g>
<defs>
<clipPath id="clip0">
<rect width="29" height="29" fill="white"/>
</clipPath>
</defs>
</svg>
