<svg width="30" height="27" viewBox="0 0 30 27" fill="none" xmlns="http://www.w3.org/2000/svg">
<g clip-path="url(#clip0)">
<path d="M15.0841 27C14.8015 27.015 14.519 26.968 14.2562 26.8621C13.9934 26.7562 13.7566 26.5941 13.5621 26.3868C12.3443 25.3173 11.2797 24.3928 10.214 23.4719C4.27811 18.4096 0.0127765 14.8802 0.0127765 9.35808C-0.107597 6.99849 0.706481 4.68727 2.27606 2.93247C3.84565 1.17767 6.04228 0.122894 8.38312 0H8.68728C9.90812 0.0227341 11.11 0.308259 12.2125 0.837436C13.3149 1.36661 14.2924 2.12722 15.0794 3.06826C15.8589 2.15605 16.8147 1.41352 17.8883 0.885987C18.962 0.358458 20.131 0.0569955 21.3241 0C22.497 0.00154675 23.6568 0.247699 24.7307 0.722975C25.8046 1.19825 26.7693 1.89237 27.5642 2.76167C28.3743 3.61876 29.007 4.62995 29.4252 5.7362C29.8434 6.84245 30.0387 8.0216 29.9998 9.20479V9.35808C29.9998 14.7269 25.738 18.4096 19.8033 23.4719C18.7423 24.3928 17.673 25.3126 16.4552 26.3868C16.2909 26.5909 16.0811 26.7529 15.8427 26.8595C15.6044 26.9661 15.3444 27.0142 15.0841 27V27ZM8.69199 3.06826C7.92031 3.09168 7.16099 3.2698 6.45834 3.59222C5.75569 3.91465 5.1238 4.37492 4.59954 4.94617C4.07528 5.51743 3.66916 6.18822 3.40488 6.91939C3.1406 7.65057 3.02346 8.42748 3.06029 9.20479C3.06029 13.3473 6.71494 16.4156 12.1922 21.1712C13.1059 21.9377 14.0184 22.8587 15.0841 23.6263C16.1451 22.7054 17.0623 21.9389 17.976 21.1712C23.4544 16.4179 27.1079 13.3473 27.1079 9.35927V9.20479C27.108 7.65657 26.5072 6.16975 25.4338 5.06228C24.949 4.43155 24.3254 3.92307 23.6122 3.57701C22.8989 3.23095 22.1156 3.05678 21.3241 3.06826C20.2713 3.0784 19.2455 3.40498 18.3779 4.0062C17.5103 4.60742 16.8404 5.45593 16.454 6.44311C16.3437 6.71748 16.1541 6.95204 15.9098 7.11629C15.6655 7.28055 15.3778 7.36688 15.0841 7.36407C14.7864 7.38774 14.4894 7.30979 14.2409 7.14275C13.9924 6.97571 13.8069 6.72929 13.7142 6.44311C13.2777 5.46067 12.5746 4.62258 11.6861 4.02547C10.7975 3.42836 9.75956 3.09654 8.69199 3.06826V3.06826Z" fill="black"/>
</g>
<defs>
<clipPath id="clip0">
<rect width="30" height="27" fill="white"/>
</clipPath>
</defs>
</svg>
