<svg width="31" height="31" viewBox="0 0 31 31" fill="none" xmlns="http://www.w3.org/2000/svg">
<path d="M22.7656 1.87695C19.4632 1.87695 17.0126 3.90509 15.5 6.78216C13.9875 3.90527 11.537 1.87695 8.23438 1.87695C3.47485 1.87695 0 5.87396 0 10.748C0 17.1936 6.14987 21.2402 14.9019 28.8983C15.2444 29.1979 15.7556 29.1979 16.0981 28.8983C24.8421 21.2472 31 17.1944 31 10.748C31 5.87317 27.5246 1.87695 22.7656 1.87695ZM15.5 27.01C7.43988 20.0087 1.81641 16.1193 1.81641 10.748C1.81641 6.72621 4.57553 3.69336 8.23438 3.69336C11.7614 3.69336 13.947 6.95968 14.6246 9.38452C14.869 10.2691 16.128 10.2731 16.3754 9.38452C17.044 6.99183 19.2043 3.69336 22.7656 3.69336C26.4245 3.69336 29.1836 6.72621 29.1836 10.748C29.1836 16.1224 23.5509 20.0167 15.5 27.01Z" fill="#5A5C6D"/>
</svg>
