<svg width="32" height="32" viewBox="0 0 32 32" fill="none" xmlns="http://www.w3.org/2000/svg">
<g clip-path="url(#clip0)">
<path d="M29.9382 11.0157C28.9534 8.99566 27.2616 7.86222 25.6273 6.76711C24.4076 5.94998 23.255 5.17838 22.4403 4.07609L22.2941 3.87959C21.8124 3.23259 21.2685 2.49933 21.1822 1.88348C21.0959 1.26045 20.5304 0.817137 19.9122 0.853082C19.2844 0.896215 18.7979 1.41621 18.7979 2.04643V23.3973C17.7939 22.7887 16.5574 22.4149 15.2035 22.4149C11.9014 22.4149 9.21277 24.5643 9.21277 27.2074C9.21277 29.8505 11.9014 32 15.2035 32C18.5056 32 21.1942 29.8505 21.1942 27.2074V6.31422C22.1335 7.31107 23.2262 8.04433 24.2926 8.75843C25.728 9.71934 27.0843 10.6275 27.7864 12.0677C28.2273 12.9663 28.4382 13.9464 28.3854 14.8186C28.2537 16.9537 27.4485 19.1008 26.2863 20.4259C25.8478 20.922 25.8957 21.6792 26.3941 22.1153C26.8878 22.5562 27.645 22.5035 28.0835 22.0075C29.5836 20.3037 30.6164 17.6055 30.7769 14.9672C30.8559 13.666 30.5661 12.3001 29.9382 11.0157V11.0157Z" fill="#5A5C6D"/>
<rect x="0.127655" y="4.74467" width="2.59575" height="15.5745" rx="1" transform="rotate(-90 0.127655 4.74467)" fill="#5A5C6D"/>
<rect x="0.127655" y="11.234" width="2.59575" height="15.5745" rx="1" transform="rotate(-90 0.127655 11.234)" fill="#5A5C6D"/>
<rect x="0.127655" y="17.7234" width="2.59575" height="15.5745" rx="1" transform="rotate(-90 0.127655 17.7234)" fill="#5A5C6D"/>
</g>
<defs>
<clipPath id="clip0">
<rect width="31.1489" height="31.1489" fill="white" transform="translate(0.127655 0.851059)"/>
</clipPath>
</defs>
</svg>
