<svg width="44" height="44" viewBox="0 0 44 44" fill="none" xmlns="http://www.w3.org/2000/svg">
<g clip-path="url(#clip0)">
<path d="M37.5834 36.6663C37.433 36.6663 37.2827 36.6406 37.1397 36.5929L0.931354 24.2179C0.410688 24.0383 0.0476876 23.5689 0.00368762 23.0208C-0.0366457 22.4726 0.251188 21.9519 0.737021 21.6971L41.987 0.155417C42.4472 -0.0810835 43.0027 -0.0444169 43.4207 0.254417C43.8424 0.555083 44.0605 1.06475 43.9854 1.57808L38.9437 35.4948C38.8832 35.8981 38.6467 36.2538 38.2965 36.4664C38.0802 36.5984 37.8327 36.6663 37.5834 36.6663V36.6663ZM4.85102 22.6504L36.465 33.4561L40.8669 3.84408L4.85102 22.6504Z" fill="black"/>
<path d="M17.4167 42.1666C17.2737 42.1666 17.1289 42.1446 16.9895 42.0988C16.423 41.9118 16.0417 41.3856 16.0417 40.7916V28.4166C16.0417 28.0701 16.1737 27.7328 16.4102 27.478L41.6185 0.436303C42.1355 -0.12103 43.01 -0.14853 43.5637 0.36847C44.1192 0.88547 44.1485 1.7563 43.6315 2.31364L18.7917 28.9575V36.5988L23.3805 30.3526C23.8297 29.744 24.6914 29.6083 25.3037 30.0593C25.916 30.5085 26.0462 31.3701 25.597 31.9825L18.5259 41.6075C18.26 41.965 17.8457 42.1666 17.4167 42.1666V42.1666Z" fill="black"/>
</g>
<defs>
<clipPath id="clip0">
<rect width="44" height="44" fill="white"/>
</clipPath>
</defs>
</svg>
