<svg width="27" height="33" viewBox="0 0 27 33" fill="none" xmlns="http://www.w3.org/2000/svg">
<g clip-path="url(#clip0)">
<path d="M19.5008 18.0006H7.50032C5.51111 18.0006 3.60338 18.7908 2.19679 20.1974C0.79021 21.604 0 23.5117 0 25.5009C0 27.4901 0.79021 29.3978 2.19679 30.8044C3.60338 32.211 5.51111 33.0012 7.50032 33.0012H19.5008C21.4901 33.0012 23.3978 32.211 24.8044 30.8044C26.211 29.3978 27.0012 27.4901 27.0012 25.5009C27.0012 23.5117 26.211 21.604 24.8044 20.1974C23.3978 18.7908 21.4901 18.0006 19.5008 18.0006V18.0006ZM19.5008 30.0011H7.50032C6.3068 30.0011 5.16216 29.5269 4.31821 28.683C3.47426 27.8391 3.00013 26.6944 3.00013 25.5009C3.00013 24.3074 3.47426 23.1628 4.31821 22.3188C5.16216 21.4749 6.3068 21.0007 7.50032 21.0007H19.5008C20.6944 21.0007 21.839 21.4749 22.683 22.3188C23.5269 23.1628 24.001 24.3074 24.001 25.5009C24.001 26.6944 23.5269 27.8391 22.683 28.683C21.839 29.5269 20.6944 30.0011 19.5008 30.0011V30.0011Z" fill="black"/>
<path d="M14.25 16.4994C16.4321 16.4803 18.5194 15.605 20.0624 14.062C21.6054 12.519 22.4807 10.4318 22.4998 8.24971C22.4807 6.06767 21.6054 3.9804 20.0624 2.43741C18.5194 0.894407 16.4321 0.0191086 14.25 0C12.068 0.0191086 9.98068 0.894407 8.43767 2.43741C6.89466 3.9804 6.01935 6.06767 6.00024 8.24971C6.01935 10.4318 6.89466 12.519 8.43767 14.062C9.98068 15.605 12.068 16.4803 14.25 16.4994V16.4994ZM14.25 2.99894C15.6375 3.01553 16.9634 3.57406 17.9446 4.5552C18.9257 5.53633 19.4842 6.86227 19.5008 8.24971C19.5008 9.64215 18.9477 10.9776 17.9631 11.9622C16.9785 12.9468 15.643 13.4999 14.2506 13.4999C12.8582 13.4999 11.5227 12.9468 10.5381 11.9622C9.55352 10.9776 9.00037 9.64215 9.00037 8.24971C9.01725 6.86267 9.57576 5.5372 10.5566 4.55634C11.5375 3.57549 12.863 3.01699 14.25 3.00011V2.99894Z" fill="black"/>
</g>
<defs>
<clipPath id="clip0">
<rect width="27" height="33" fill="white"/>
</clipPath>
</defs>
</svg>
