<svg width="23" height="25" viewBox="0 0 23 25" fill="none" xmlns="http://www.w3.org/2000/svg">
<path d="M22.6503 22.771L16.9804 16.5827C18.4382 14.7641 19.237 12.4759 19.237 10.0937C19.237 4.52814 14.922 0 9.61849 0C4.31494 0 0 4.52814 0 10.0937C0 15.6593 4.31494 20.1875 9.61849 20.1875C11.6095 20.1875 13.5069 19.5573 15.1291 18.361L20.842 24.5963C21.0808 24.8565 21.402 25 21.7462 25C22.0719 25 22.381 24.8697 22.6156 24.6327C23.1141 24.1293 23.13 23.2946 22.6503 22.771ZM9.61849 2.63315C13.5387 2.63315 16.7278 5.97988 16.7278 10.0937C16.7278 14.2076 13.5387 17.5543 9.61849 17.5543C5.69833 17.5543 2.50917 14.2076 2.50917 10.0937C2.50917 5.97988 5.69833 2.63315 9.61849 2.63315Z" fill="#5A5C6D"/>
</svg>
