<svg width="31" height="25" viewBox="0 0 31 25" fill="none" xmlns="http://www.w3.org/2000/svg">
<path d="M28.4113 19.381L23.8219 16.7312C22.8954 16.1964 21.7329 16.8658 21.7329 17.9373V19.5457H9.10494C5.39705 19.5456 2.38046 16.5291 2.38046 12.8211C2.38046 12.246 1.91421 11.7798 1.33917 11.7798C0.764072 11.7798 0.297882 12.2461 0.297882 12.8211C0.297882 17.6774 4.24878 21.6283 9.105 21.6283H21.7329V23.2367C21.7329 24.3064 22.8939 24.9785 23.8218 24.4427L28.4112 21.793C29.3377 21.2583 29.3392 19.9168 28.4113 19.381Z" fill="#5A5C6D"/>
<path d="M21.3417 3.34318H8.71375V1.73473C8.71375 0.665043 7.55276 -0.00713056 6.62481 0.528673L2.03539 3.17836C1.10902 3.71317 1.10738 5.05466 2.03539 5.59047L6.62481 8.24022C7.55125 8.77509 8.71375 8.1056 8.71375 7.03416V5.42576H21.3417C25.0497 5.42576 28.0662 8.44229 28.0662 12.1502C28.0662 12.7253 28.5325 13.1915 29.1075 13.1915C29.6826 13.1915 30.1488 12.7253 30.1488 12.1502C30.1489 7.29402 26.198 3.34318 21.3417 3.34318Z" fill="#5A5C6D"/>
</svg>
